<mxfile host="app.diagrams.net" agent="Mozilla/5.0 (Windows NT 10.0; Win64; x64) AppleWebKit/537.36 (KHTML, like Gecko) Chrome/129.0.0.0 Safari/537.36" version="24.7.17">
  <diagram name="PÃ¡gina-1" id="dB0Th8hIOQAAwLaT1enX">
    <mxGraphModel dx="472" dy="779" grid="1" gridSize="10" guides="1" tooltips="1" connect="1" arrows="1" fold="1" page="1" pageScale="1" pageWidth="827" pageHeight="1169" math="0" shadow="0">
      <root>
        <mxCell id="0" />
        <mxCell id="1" parent="0" />
        <mxCell id="j9b0PX3wENcp7aWdqeCU-6" style="edgeStyle=orthogonalEdgeStyle;rounded=0;orthogonalLoop=1;jettySize=auto;html=1;entryX=0;entryY=0.5;entryDx=0;entryDy=0;endArrow=none;endFill=0;" edge="1" parent="1" source="j9b0PX3wENcp7aWdqeCU-1" target="j9b0PX3wENcp7aWdqeCU-4">
          <mxGeometry relative="1" as="geometry" />
        </mxCell>
        <mxCell id="j9b0PX3wENcp7aWdqeCU-1" value="PROFESOR" style="rounded=0;whiteSpace=wrap;html=1;" vertex="1" parent="1">
          <mxGeometry x="40" y="200" width="120" height="60" as="geometry" />
        </mxCell>
        <mxCell id="j9b0PX3wENcp7aWdqeCU-11" style="edgeStyle=orthogonalEdgeStyle;rounded=0;orthogonalLoop=1;jettySize=auto;html=1;endArrow=none;endFill=0;" edge="1" parent="1" source="j9b0PX3wENcp7aWdqeCU-2" target="j9b0PX3wENcp7aWdqeCU-10">
          <mxGeometry relative="1" as="geometry" />
        </mxCell>
        <mxCell id="j9b0PX3wENcp7aWdqeCU-2" value="ESTUDIANTE" style="rounded=0;whiteSpace=wrap;html=1;" vertex="1" parent="1">
          <mxGeometry x="480" y="470" width="120" height="60" as="geometry" />
        </mxCell>
        <mxCell id="j9b0PX3wENcp7aWdqeCU-8" style="edgeStyle=orthogonalEdgeStyle;rounded=0;orthogonalLoop=1;jettySize=auto;html=1;endArrow=none;endFill=0;" edge="1" parent="1" source="j9b0PX3wENcp7aWdqeCU-3" target="j9b0PX3wENcp7aWdqeCU-5">
          <mxGeometry relative="1" as="geometry" />
        </mxCell>
        <mxCell id="j9b0PX3wENcp7aWdqeCU-3" value="MODULO" style="rounded=0;whiteSpace=wrap;html=1;" vertex="1" parent="1">
          <mxGeometry x="480" y="200" width="120" height="60" as="geometry" />
        </mxCell>
        <mxCell id="j9b0PX3wENcp7aWdqeCU-7" style="edgeStyle=orthogonalEdgeStyle;rounded=0;orthogonalLoop=1;jettySize=auto;html=1;entryX=0;entryY=0.5;entryDx=0;entryDy=0;endArrow=none;endFill=0;" edge="1" parent="1" source="j9b0PX3wENcp7aWdqeCU-4" target="j9b0PX3wENcp7aWdqeCU-3">
          <mxGeometry relative="1" as="geometry" />
        </mxCell>
        <mxCell id="j9b0PX3wENcp7aWdqeCU-4" value="posee" style="rhombus;whiteSpace=wrap;html=1;" vertex="1" parent="1">
          <mxGeometry x="280" y="200" width="90" height="60" as="geometry" />
        </mxCell>
        <mxCell id="j9b0PX3wENcp7aWdqeCU-9" style="edgeStyle=orthogonalEdgeStyle;rounded=0;orthogonalLoop=1;jettySize=auto;html=1;endArrow=none;endFill=0;" edge="1" parent="1" source="j9b0PX3wENcp7aWdqeCU-5" target="j9b0PX3wENcp7aWdqeCU-2">
          <mxGeometry relative="1" as="geometry" />
        </mxCell>
        <mxCell id="j9b0PX3wENcp7aWdqeCU-5" value="posee" style="rhombus;whiteSpace=wrap;html=1;" vertex="1" parent="1">
          <mxGeometry x="495" y="340" width="90" height="60" as="geometry" />
        </mxCell>
        <mxCell id="j9b0PX3wENcp7aWdqeCU-12" style="edgeStyle=orthogonalEdgeStyle;rounded=0;orthogonalLoop=1;jettySize=auto;html=1;entryX=0.5;entryY=1;entryDx=0;entryDy=0;endArrow=none;endFill=0;" edge="1" parent="1">
          <mxGeometry relative="1" as="geometry">
            <mxPoint x="585" y="530" as="targetPoint" />
            <mxPoint x="675" y="575" as="sourcePoint" />
          </mxGeometry>
        </mxCell>
        <mxCell id="j9b0PX3wENcp7aWdqeCU-10" value="delegado" style="rhombus;whiteSpace=wrap;html=1;" vertex="1" parent="1">
          <mxGeometry x="630" y="550" width="100" height="50" as="geometry" />
        </mxCell>
        <mxCell id="j9b0PX3wENcp7aWdqeCU-13" value="1:m" style="text;html=1;align=center;verticalAlign=middle;resizable=0;points=[];autosize=1;strokeColor=none;fillColor=none;" vertex="1" parent="1">
          <mxGeometry x="710" y="590" width="40" height="30" as="geometry" />
        </mxCell>
        <mxCell id="j9b0PX3wENcp7aWdqeCU-14" value="1:m" style="text;html=1;align=center;verticalAlign=middle;resizable=0;points=[];autosize=1;strokeColor=none;fillColor=none;" vertex="1" parent="1">
          <mxGeometry x="610" y="470" width="40" height="30" as="geometry" />
        </mxCell>
        <mxCell id="j9b0PX3wENcp7aWdqeCU-15" value="0:1" style="text;html=1;align=center;verticalAlign=middle;resizable=0;points=[];autosize=1;strokeColor=none;fillColor=none;" vertex="1" parent="1">
          <mxGeometry x="610" y="548" width="40" height="30" as="geometry" />
        </mxCell>
        <mxCell id="j9b0PX3wENcp7aWdqeCU-16" value="min estudiante" style="text;html=1;align=center;verticalAlign=middle;resizable=0;points=[];autosize=1;strokeColor=none;fillColor=none;" vertex="1" parent="1">
          <mxGeometry x="630" y="458" width="100" height="30" as="geometry" />
        </mxCell>
        <mxCell id="j9b0PX3wENcp7aWdqeCU-17" value="min delegado" style="text;html=1;align=center;verticalAlign=middle;resizable=0;points=[];autosize=1;strokeColor=none;fillColor=none;" vertex="1" parent="1">
          <mxGeometry x="530" y="588" width="100" height="30" as="geometry" />
        </mxCell>
        <mxCell id="j9b0PX3wENcp7aWdqeCU-18" value="maximos" style="text;html=1;align=center;verticalAlign=middle;resizable=0;points=[];autosize=1;strokeColor=none;fillColor=none;" vertex="1" parent="1">
          <mxGeometry x="745" y="625" width="70" height="30" as="geometry" />
        </mxCell>
      </root>
    </mxGraphModel>
  </diagram>
</mxfile>
